PathFileType	4	(X/Y/Z)	C:\Users\Basilio\Documents\Thesis Gigler\squatting_fais\c3dfiles\019\SLS_front_pre3\markers_experimental.trc
DataRate	CameraRate	NumFrames	NumMarkers	Units	OrigDataRate	OrigDataStartFrame	OrigNumFrames
200.000000	200.000000	4	59	mm	200.000000	493	1316
Frame#	Time	LBHD			RBHD			C7			T10			LSHO			LUUPA			LMUPA			LDUPA			LLEP			LMEP			LRAD			LUL			LRFIN			RSHO			RUPA1			RMUPA			RDUPA			RLEP			RMEP			RRAD			RUL			RUFIN			LASI			RASI			USACR			LSACR			RSACR			LTHI1			LTHI2			LTHI3			LTHI4			LLFC			LTIB1			LTIB2			LTIB3			LTIB4			LLMAL			LMMAL			LHEE			LMT1			LMT2			LMT5			RTHI			RTHI2			RTHI3			RTHI4			RLFC			RTIB1			RTIB2			RTIB3			RTIB4			RLMAL			RMMAL			RHEE			RMT1			RMT2			RMT5			FHD			CLAV			
		X1	Y1	Z1	X2	Y2	Z2	X3	Y3	Z3	X4	Y4	Z4	X5	Y5	Z5	X6	Y6	Z6	X7	Y7	Z7	X8	Y8	Z8	X9	Y9	Z9	X10	Y10	Z10	X11	Y11	Z11	X12	Y12	Z12	X13	Y13	Z13	X14	Y14	Z14	X15	Y15	Z15	X16	Y16	Z16	X17	Y17	Z17	X18	Y18	Z18	X19	Y19	Z19	X20	Y20	Z20	X21	Y21	Z21	X22	Y22	Z22	X23	Y23	Z23	X24	Y24	Z24	X25	Y25	Z25	X26	Y26	Z26	X27	Y27	Z27	X28	Y28	Z28	X29	Y29	Z29	X30	Y30	Z30	X31	Y31	Z31	X32	Y32	Z32	X33	Y33	Z33	X34	Y34	Z34	X35	Y35	Z35	X36	Y36	Z36	X37	Y37	Z37	X38	Y38	Z38	X39	Y39	Z39	X40	Y40	Z40	X41	Y41	Z41	X42	Y42	Z42	X43	Y43	Z43	X44	Y44	Z44	X45	Y45	Z45	X46	Y46	Z46	X47	Y47	Z47	X48	Y48	Z48	X49	Y49	Z49	X50	Y50	Z50	X51	Y51	Z51	X52	Y52	Z52	X53	Y53	Z53	X54	Y54	Z54	X55	Y55	Z55	X56	Y56	Z56	X57	Y57	Z57	X58	Y58	Z58	X59	Y59	Z59	

494	2.465	-371.0406799316407	1529.113525390625	-787.8098144531252	-371.3116149902344	1523.573120117188	-647.8348388671876	-411.838104248047	1372.222900390625	-706.8647460937501	-527.0025634765626	1107.593505859375	-702.3871459960939	-342.0008239746094	1368.863403320313	-840.898620605469	-223.8867950439454	1355.604248046875	-898.989685058594	-195.0318298339844	1344.349487304688	-858.5958251953127	-159.0053405761719	1356.271728515625	-905.0772705078127	-87.51791381835939	1337.319946289063	-942.9345703125002	-84.10066986083986	1277.82373046875	-935.9266357421877	164.1146697998047	1352.033447265625	-857.2996215820315	159.0880432128907	1358.755493164063	-925.2452392578127	234.2347869873047	1370.45703125	-856.2490234375002	-323.0991516113282	1368.303344726563	-596.2425537109376	-204.0374603271485	1318.611450195313	-494.3524475097657	-182.6418762207032	1341.674072265625	-532.1421508789064	-134.8271026611328	1316.718383789063	-496.7621154785157	-58.69126129150392	1316.371459960938	-513.0407104492189	-66.0759735107422	1256.643920898438	-520.4234008789064	169.4142456054688	1335.472778320313	-621.9774780273439	185.9223937988282	1345.608032226563	-557.3651733398439	254.7500152587891	1352.776489257813	-630.6604614257814	-425.9712219238282	898.9468383789065	-821.8438720703127	-414.9776611328126	878.2685546875002	-617.1932983398439	-568.2138061523439	965.7478637695315	-708.7187500000001	-579.9188842773439	935.342224121094	-735.2468261718751	-576.3171386718751	934.229919433594	-679.8597412109376	-346.3613281250001	711.4645385742189	-913.818054199219	-264.0317382812501	692.3790283203126	-904.9566650390627	-241.420394897461	728.0792236328126	-882.9736938476565	-238.5505676269532	636.8275146484376	-902.243835449219	-168.212875366211	568.9493408203126	-892.319763183594	-36.84261703491212	500.0114746093751	-866.1705322265627	-46.98559570312501	433.835662841797	-923.8906860351565	-17.79606246948243	455.055145263672	-898.485290527344	37.23825073242188	394.2671203613282	-869.8052368164065	79.91416931152345	257.3039245605469	-905.590759277344	88.58679962158205	267.4419555664063	-823.3801269531252	49.34459304809572	188.8447570800782	-858.336608886719	235.0600280761719	280.5938415527344	-827.237731933594	242.8126220703126	283.6705322265626	-866.4822387695315	220.5503387451172	241.8462982177735	-920.0835571289065	-388.0511169433595	696.2611083984376	-553.4805297851564	-324.2604675292969	679.7772827148439	-566.2637329101564	-307.5779113769532	703.8875732421876	-585.6838989257814	-292.2875366210938	606.0937500000001	-569.7139282226564	-234.8977966308594	466.1981201171876	-621.5991821289064	-235.8857116699219	297.3656921386719	-703.8519897460939	-310.0398864746094	231.1165466308594	-653.5892944335939	-279.8094482421876	223.4698181152344	-689.4272460937501	-304.2655944824219	194.2346649169922	-734.6094970703126	-386.2326660156251	125.5800094604492	-693.4954833984376	-368.6327819824219	135.3008880615235	-770.493103027344	-455.7477111816407	105.9382247924805	-749.9728393554689	-257.3432617187501	57.28931427001955	-773.935485839844	-249.0445251464844	54.71820068359376	-731.6503906250001	-293.0078735351563	49.26906967163087	-674.0520629882814	-239.4766998291016	1562.446411132813	-647.8545532226564	nan	nan	nan	
495	2.47	-369.9628601074219	1527.736206054688	-787.6914062500002	-370.8805847167969	1522.48193359375	-647.6719970703126	-411.5879821777345	1371.318237304688	-706.7001342773439	-527.2229003906251	1106.873168945313	-702.1959228515626	-341.8650207519532	1367.763916015625	-840.875915527344	-223.707748413086	1354.478149414063	-898.8063964843752	-195.0260162353516	1343.187255859375	-858.5266113281252	-158.7889404296875	1355.15966796875	-904.8107910156252	-87.3606414794922	1336.22607421875	-942.8152465820315	-83.9727249145508	1276.714721679688	-935.7009277343752	163.8930053710938	1349.368408203125	-857.9842529296877	159.6437225341797	1357.467529296875	-925.1004638671877	234.4509429931641	1369.058471679688	-856.279235839844	-322.5126037597657	1367.264404296875	-596.5437622070314	-203.6996612548829	1317.420532226563	-494.3909606933595	-182.2307586669922	1340.497924804688	-532.0692138671876	-134.6506042480469	1315.533325195313	-496.7126770019532	-58.40051269531251	1315.176635742188	-512.9059448242189	-66.03504943847658	1255.162475585938	-520.5322875976564	169.561279296875	1333.9970703125	-621.8450317382814	186.2434539794922	1344.314819335938	-557.4611816406251	255.0270233154297	1351.49853515625	-630.6673583984376	-426.4883117675782	898.0774536132815	-821.771911621094	-415.4476013183595	877.4270629882815	-617.1081542968751	-568.6289062500001	964.9334716796877	-708.6378173828126	-580.1671752929689	934.4722900390627	-735.1716918945314	-576.7757568359376	933.3658447265627	-679.7470703125001	-346.7893981933594	710.5111694335939	-913.8841552734377	-264.4996643066407	691.4401855468751	-905.0315551757815	-241.9045715332032	727.2044677734376	-883.0828247070315	-238.9882965087891	635.8256835937501	-902.2902832031252	-168.5750122070313	567.9257812500001	-892.3215942382815	-37.2043800354004	499.080535888672	-866.4057617187502	-47.34729003906251	432.806365966797	-924.019714355469	-18.39826965332032	454.0736083984376	-898.6628417968752	36.6384620666504	393.2049865722657	-869.919860839844	79.01078033447267	256.2330017089844	-906.0364990234377	87.67797088623048	266.3122253417969	-823.661315917969	48.57454299926759	187.6578369140625	-858.8193969726565	234.3111724853516	279.1085510253907	-827.1966552734377	241.9869842529297	282.2344970703126	-866.456481933594	219.7853088378907	240.6395874023438	-920.2573852539065	-388.3139038085939	695.4733886718751	-553.3750000000001	-324.4914245605469	679.2055053710939	-566.2254638671876	-307.7612609863282	703.5056152343751	-585.6874389648439	-292.3269653320313	605.6277465820314	-569.6927490234376	-234.5200958251954	465.9758911132814	-621.6328735351564	-235.7894134521485	297.2604064941407	-703.8544921875001	-309.8733825683594	231.0296478271485	-653.5628662109376	-279.7176818847657	223.433334350586	-689.3773193359376	-304.1506347656251	194.1196289062501	-734.6082153320314	-386.3352966308595	125.5787506103516	-693.4532470703126	-368.9811096191407	135.4288940429688	-770.543151855469	-455.8286743164064	105.9344482421875	-749.9496459960939	-256.9874877929688	57.04416656494142	-773.8816528320315	-249.0687255859376	54.64746475219728	-731.7366333007814	-293.0138549804688	49.27195358276369	-674.0700073242189	-239.0512237548829	1561.325805664063	-647.7892456054689	nan	nan	nan	
496	2.475	-369.6818542480469	1526.63134765625	-787.5638427734377	-370.4834594726563	1521.573486328125	-647.5959472656251	-411.3330993652345	1370.13671875	-706.6210937500001	-527.2780151367189	1105.983642578125	-702.0515136718751	-341.6814575195313	1366.723266601563	-840.6423339843752	-223.4265289306641	1353.41259765625	-898.708190917969	-194.6836090087891	1342.022094726563	-858.203552246094	-158.5411071777344	1354.087280273438	-904.5527343750002	-87.19752502441408	1335.085693359375	-942.6111450195315	-83.88122558593751	1275.496704101563	-935.6281738281252	165.0079956054688	1349.965942382813	-857.0513305664065	159.0328674316407	1356.26318359375	-925.5262451171877	234.9140930175782	1367.652587890625	-856.543151855469	-322.3413696289063	1366.117797851563	-596.5755004882814	-203.6567993164063	1316.463256835938	-494.1583251953126	-181.9979400634766	1339.2646484375	-531.8702392578126	-134.4130401611328	1314.445678710938	-496.6410217285157	-58.2252540588379	1313.970092773438	-512.8729248046876	-65.80391693115236	1254.046142578125	-520.3971557617189	169.605697631836	1332.092895507813	-624.7292480468751	186.5543670654297	1342.888549804688	-557.3668823242189	254.5352783203126	1349.735717773438	-630.6392822265626	-426.925262451172	897.130310058594	-821.7188720703127	-415.9554138183595	876.5335693359377	-617.1010131835939	-568.9134521484376	964.1625976562502	-708.5758666992189	-580.3739624023439	933.6245117187502	-735.1488037109376	-577.2405395507814	932.5711669921877	-679.7774658203126	-347.2257080078126	709.5022583007814	-913.8962402343752	-265.1524963378907	690.5832519531251	-905.1362304687502	-242.326889038086	726.2534179687501	-883.2188110351565	-239.4038238525391	634.8714599609376	-902.3535766601565	-169.0037994384766	567.0175170898439	-892.4246215820315	-37.77202606201173	497.8387145996095	-866.0708618164065	-48.06916809082033	431.5766601562501	-924.0932617187502	-18.44776153564453	452.6098022460939	-898.7546386718752	36.71420288085938	392.4728088378907	-870.3143310546877	78.16529846191408	255.3491821289063	-906.3994750976565	87.0687713623047	264.9436645507813	-823.9266357421877	47.57122039794923	186.5804595947266	-859.2529296875002	233.3628082275391	277.4264831542969	-827.5747680664065	241.2798767089844	280.8597717285157	-866.7172851562502	218.8525390625001	239.493392944336	-920.4721679687502	-388.5591430664064	694.8255615234376	-553.3632202148439	-324.7949218750001	678.7388916015626	-566.1661376953126	-308.1546630859376	703.0524902343751	-585.7077026367189	-292.3065490722657	605.1293334960939	-569.7498168945314	-234.2087860107422	465.797821044922	-621.7500610351564	-235.7820434570313	297.1504516601563	-703.8937988281251	-309.8129882812501	231.0200958251954	-653.4608154296876	-279.6091308593751	223.3914947509766	-689.3322143554689	-304.0527954101563	194.0139465332032	-734.6104125976564	-386.3809204101564	125.562858581543	-693.4387207031251	-368.9319458007813	135.4256744384766	-770.475280761719	-455.6617431640626	106.0655212402344	-749.9459228515626	-257.3323364257813	57.41133499145509	-773.9295654296877	-249.0394744873047	54.62339782714845	-731.7253417968751	-292.9952697753907	49.25363922119142	-674.0706787109376	-238.5251617431641	1559.930908203125	-647.4233398437501	nan	nan	nan	
497	2.48	-369.3121337890626	1525.561401367188	-787.3577880859377	-370.2200927734376	1520.388061523438	-647.5081176757814	-411.1065368652345	1369.118408203125	-706.5401000976564	-527.4926757812501	1105.186401367188	-701.8722534179689	-341.2842102050782	1365.630249023438	-840.2958984375002	-223.5843811035157	1352.168701171875	-898.6006469726565	-194.447250366211	1340.952026367188	-858.043151855469	-158.3357238769532	1352.947509765625	-904.420349121094	-86.96675109863283	1333.885986328125	-942.4910278320315	-83.66595458984376	1274.465698242188	-935.4544067382815	164.2689208984375	1346.859985351563	-857.924011230469	159.6167755126953	1354.776977539063	-924.7456054687502	235.1439361572266	1366.310668945313	-856.4244384765627	-322.5259704589844	1364.431274414063	-596.1593017578126	-203.4183959960938	1315.27587890625	-494.2303466796876	-181.8953704833985	1338.302001953125	-531.9118041992189	-134.2679290771485	1313.205078125	-496.5749816894532	-58.01263427734376	1312.762817382813	-512.7566528320314	-65.53493499755861	1253.041381835938	-520.0562744140626	170.189208984375	1331.176879882813	-622.9960937500001	186.6638488769532	1341.50830078125	-557.5465087890626	254.5689392089844	1348.380004882813	-630.9107055664064	-427.3568115234376	896.1939086914065	-821.6331176757815	-416.4077453613282	875.6521606445315	-617.0366821289064	-569.3904418945314	963.3812255859377	-708.4075317382814	-580.7050170898439	932.794860839844	-735.0676269531251	-577.4713134765626	931.6014404296877	-679.7719116210939	-347.7644348144532	708.6063232421876	-913.9012451171877	-265.7722167968751	689.7354125976564	-905.260437011719	-242.7897338867188	725.3555908203126	-883.470397949219	-239.8896636962891	633.9108276367189	-902.4083251953127	-169.6805877685547	566.2817382812501	-892.5006103515627	-38.19289779663087	496.8616027832032	-866.3781738281252	-48.73958969116212	430.6773376464845	-924.267761230469	-19.14282989501953	451.7095947265626	-898.8746337890627	35.9314193725586	391.3255615234376	-870.5360107421877	77.16903686523439	254.3437805175782	-906.7316894531252	86.18450927734376	263.7012023925782	-824.223083496094	46.4576644897461	185.456283569336	-859.6784667968752	232.5804290771485	275.9220886230469	-827.5164184570315	240.2804412841797	279.3894348144532	-866.966003417969	218.213851928711	237.7772216796876	-920.6314086914065	-388.8052673339845	694.2164306640626	-553.4061279296876	-325.0074768066407	678.1719970703126	-566.0942993164064	-308.5117492675782	702.6003417968751	-585.6900634765626	-292.3627014160157	604.7520751953126	-569.8102416992189	-234.0221405029297	465.6630859375001	-621.9036865234376	-235.6130981445313	297.0953063964844	-703.9642333984376	-309.6571350097657	230.9645996093751	-653.4843139648439	-279.5574035644532	223.2668914794922	-689.3804931640626	-303.9580078125001	193.921127319336	-734.6062622070314	-386.250946044922	125.5009841918946	-693.3607177734376	-368.9998474121094	135.4246673583985	-770.4234008789065	-455.8526306152345	105.9319229125977	-749.9387207031251	-257.2751464843751	57.45840072631837	-773.907409667969	-249.0565643310547	54.72718811035158	-731.6561279296876	-293.0005493164063	49.26195907592775	-674.0527343750001	-238.1004638671876	1558.814453125	-647.5817260742189	nan	nan	nan	
